# xmcd CD database file
#
# Track frame offsets:
#	150
#	15203
#	26683
#	46575
#	71276
#	88945
#	109566
#	134183
#	144542
#	159029
#	171114
#	184693
#	199482
#	219084
#
# Disc length: 3111 seconds
#
# Revision: 2
# Processed by: cddbd v1.5.1PL2 Copyright (c) Steve Scherf et al.
# Submitted via: CDex 1.51
#
DISCID=b40c250e
DTITLE=Amalia Grè - per te
DYEAR=1900
DGENRE=Jazz
TTITLE0=Angel my love
TTITLE1=Giardino Multirazziale
TTITLE2=Avvolgimi amore
TTITLE3=Quanto t'ho amato
TTITLE4=Forte respiro
TTITLE5=Venere
TTITLE6=Give me more time
TTITLE7=Smile
TTITLE8=Peonia
TTITLE9=Armonafrica televisiva
TTITLE10=S.H.A.
TTITLE11=Moon river
TTITLE12=Ascoltami
TTITLE13=We have all the time in the world
EXTD=
EXTT0=
EXTT1=
EXTT2=
EXTT3=
EXTT4=
EXTT5=
EXTT6=
EXTT7=
EXTT8=
EXTT9=
EXTT10=
EXTT11=
EXTT12=
EXTT13=
PLAYORDER=
